<svg width="43" height="50" viewBox="0 0 43 50" fill="none" xmlns="http://www.w3.org/2000/svg">
<g clip-path="url(#clip0_4225_197)">
<path d="M35.955 3.89189C33.6481 1.26242 29.4779 0.135101 24.143 0.135101H8.65951C8.13167 0.135121 7.62115 0.323436 7.21973 0.666189C6.81831 1.00894 6.55233 1.48365 6.46961 2.00497L0.0225895 42.8935C-0.105556 43.6998 0.518782 44.43 1.336 44.43H10.8949L13.2956 29.203L13.2211 29.6798C13.3921 28.6035 14.3127 27.8096 15.4027 27.8096H19.9451C28.8686 27.8096 35.8559 24.1851 37.8969 13.7002C37.9575 13.3901 38.01 13.0882 38.0554 12.7934C37.7978 12.657 37.7978 12.657 38.0554 12.7934C38.6632 8.91805 38.0512 6.28013 35.955 3.89189Z" fill="#27346A"/>
<path d="M16.9532 11.3974C17.2145 11.2729 17.5004 11.2084 17.7898 11.2086H29.9286C31.366 11.2086 32.7067 11.3022 33.9319 11.4993C34.2747 11.554 34.6158 11.6193 34.9545 11.695C35.4347 11.801 35.9094 11.9307 36.3767 12.0836C36.979 12.2848 37.54 12.519 38.0555 12.7934C38.6632 8.91656 38.0512 6.28013 35.955 3.89189C33.6468 1.26242 29.4779 0.135101 24.143 0.135101H8.65819C7.56795 0.135101 6.64047 0.92881 6.46961 2.00497L0.0225904 42.8921C-0.105555 43.6997 0.518782 44.4288 1.33468 44.4288H10.8949L15.8756 12.8444C15.9245 12.5339 16.0482 12.24 16.2359 11.988C16.4237 11.7359 16.6698 11.5332 16.9532 11.3974Z" fill="#27346A"/>
<path d="M37.8967 13.7002C35.8557 24.1836 28.8686 27.8096 19.9449 27.8096H15.4012C14.3111 27.8096 13.3905 28.6035 13.2211 29.6798L10.2345 48.6128C10.1229 49.3184 10.6686 49.9578 11.3825 49.9578H19.4405C19.902 49.9577 20.3484 49.7929 20.6994 49.493C21.0503 49.1932 21.2827 48.7779 21.3549 48.322L21.4333 47.9114L22.952 38.2863L23.0499 37.7543C23.122 37.2984 23.3544 36.8832 23.7053 36.5834C24.0562 36.2835 24.5026 36.1187 24.9641 36.1185H26.1701C33.9759 36.1185 40.088 32.9474 41.8741 23.7758C42.6196 19.943 42.2338 16.743 40.2616 14.4954C39.6635 13.8146 38.9206 13.2523 38.0552 12.7934C38.0083 13.0897 37.9575 13.3901 37.8967 13.7002Z" fill="#2790C3"/>
<path d="M35.9193 11.9417C35.601 11.8488 35.2798 11.7665 34.956 11.695C34.6171 11.6205 34.276 11.5557 33.9333 11.5007C32.7068 11.3021 31.3671 11.2084 29.9284 11.2084H17.7911C17.5015 11.2078 17.2154 11.2728 16.9545 11.3987C16.6708 11.5341 16.4244 11.7367 16.2366 11.9888C16.0488 12.2409 15.9252 12.5351 15.8767 12.8457L13.2969 29.203L13.2224 29.6798C13.3921 28.6035 14.3126 27.8096 15.4029 27.8096H19.9466C28.8701 27.8096 35.8572 24.1851 37.8982 13.7002C37.959 13.3901 38.01 13.0896 38.0568 12.7934C37.54 12.5205 36.9805 12.2848 36.378 12.0849C36.226 12.0345 36.0731 11.9868 35.9194 11.9417" fill="#1F264F"/>
</g>
<defs>
<clipPath id="clip0_4225_197">
<rect width="42.3841" height="50" fill="white"/>
</clipPath>
</defs>
</svg>
