<svg width="120" height="50" viewBox="0 0 120 50" fill="none" xmlns="http://www.w3.org/2000/svg">
<g clip-path="url(#clip0_4225_195)">
<path d="M119.626 25.7196C119.626 17.2129 115.506 10.5005 107.63 10.5005C99.7215 10.5005 94.9364 17.2131 94.9364 25.6533C94.9364 35.6551 100.586 40.7061 108.693 40.7061C112.648 40.7061 115.639 39.8089 117.898 38.5463V31.9002C115.639 33.0301 113.047 33.728 109.757 33.728C106.534 33.728 103.676 32.5981 103.311 28.6771H119.56C119.56 28.2449 119.626 26.5171 119.626 25.7196ZM103.211 22.5629C103.211 18.8079 105.504 17.246 107.597 17.246C109.624 17.246 111.784 18.8079 111.784 22.5629H103.211ZM82.1103 10.5005C78.8535 10.5005 76.76 12.029 75.5972 13.0925L75.165 11.0322H67.8547V49.7776L76.1619 48.0166L76.1953 38.6126C77.3916 39.4766 79.1526 40.7061 82.0769 40.7061C88.025 40.7061 93.4414 35.921 93.4414 25.3874C93.4082 15.7507 87.9252 10.5005 82.11 10.5005H82.1103ZM80.1164 33.3956C78.1558 33.3956 76.9925 32.6979 76.1953 31.8339L76.1619 19.5056C77.0259 18.5421 78.2222 17.8776 80.1164 17.8776C83.1402 17.8776 85.2336 21.2668 85.2336 25.6199C85.2336 30.0727 83.1734 33.3956 80.1164 33.3956ZM56.4236 8.53995L64.7643 6.74556V0L56.4236 1.76122V8.53995ZM56.4236 11.0654H64.7643V40.1411H56.4236V11.0654ZM47.485 13.5243L46.9533 11.0654H39.7757V40.1411H48.0832V20.4362C50.0435 17.8776 53.3666 18.3428 54.3967 18.7082V11.0654C53.3334 10.6666 49.4456 9.93551 47.485 13.5243ZM30.8701 3.85467L22.7621 5.58248L22.729 32.1993C22.729 37.1175 26.4175 40.7393 31.3355 40.7393C34.0603 40.7393 36.054 40.2409 37.1505 39.6428V32.8972C36.0874 33.3292 30.8369 34.8577 30.8369 29.9397V18.1432H37.1505V11.0654H30.8369L30.8701 3.85467ZM8.40701 19.5056C8.40701 18.2098 9.47033 17.7112 11.2318 17.7112C13.757 17.7112 16.947 18.4757 19.4724 19.8381V12.029C16.7145 10.9325 13.9897 10.5005 11.2318 10.5005C4.48598 10.5005 0 14.0229 0 19.9047C0 29.0757 12.6271 27.6138 12.6271 31.5682C12.6271 33.0965 11.2981 33.5951 9.43715 33.5951C6.67921 33.5951 3.15678 32.4652 0.365421 30.9367V38.8453C3.45584 40.1745 6.57944 40.7393 9.43715 40.7393C16.3488 40.7393 21.1007 37.3168 21.1007 31.3687C21.0675 21.4664 8.40701 23.2273 8.40701 19.5056Z" fill="#635BFF"/>
</g>
<defs>
<clipPath id="clip0_4225_195">
<rect width="119.626" height="50" fill="white"/>
</clipPath>
</defs>
</svg>
