<svg width="75" height="50" viewBox="0 0 75 50" fill="none" xmlns="http://www.w3.org/2000/svg">
<g clip-path="url(#clip0_4229_196)">
<path d="M70 50H5C3.67392 50 2.40215 49.4732 1.46447 48.5355C0.526784 47.5979 0 46.3261 0 45L0 5C0 3.67392 0.526784 2.40215 1.46447 1.46447C2.40215 0.526784 3.67392 0 5 0L70 0C71.3261 0 72.5979 0.526784 73.5355 1.46447C74.4732 2.40215 75 3.67392 75 5V45C75 46.3261 74.4732 47.5979 73.5355 48.5355C72.5979 49.4732 71.3261 50 70 50ZM29.2333 21.5104C29.1763 21.5112 29.1201 21.5247 29.0689 21.5499C29.0177 21.5751 28.9728 21.6115 28.9375 21.6563C28.8554 21.7398 28.8085 21.8516 28.8062 21.9687C28.8062 22.0125 29.0104 22.6354 29.4479 23.9125L30.3937 26.675L30.8333 27.9625C31.3264 29.4069 31.584 30.175 31.6062 30.2667C30.6363 31.4675 29.7595 32.7407 28.9833 34.075L28.9042 34.2208L28.9 34.2729C28.9 34.4812 29.0687 34.6521 29.2792 34.6521L29.3354 34.6479H29.3333H31.8708C31.9891 34.6472 32.1053 34.6164 32.2084 34.5585C32.3116 34.5005 32.3983 34.4173 32.4604 34.3167L32.4625 34.3146L40.8625 22.1917C40.9067 22.1335 40.9308 22.0626 40.9312 21.9896L40.9292 21.9583V21.9604C40.9263 21.8434 40.8795 21.7318 40.7979 21.6479C40.7629 21.6033 40.7183 21.567 40.6675 21.5418C40.6167 21.5166 40.5609 21.503 40.5042 21.5021H37.9646C37.846 21.5028 37.7296 21.5336 37.6261 21.5915C37.5226 21.6495 37.4355 21.7326 37.3729 21.8333L37.3708 21.8354L33.8708 26.9729L32.4229 22.0312C32.3858 21.8807 32.2994 21.7468 32.1775 21.6509C32.0555 21.5551 31.9051 21.5027 31.75 21.5021L31.6958 21.5042H31.6979L29.2333 21.5104ZM58.3542 21.2792H58.3C56.7208 21.2792 55.3021 21.9646 54.3229 23.0521L54.3187 23.0562C53.2478 24.1638 52.6501 25.6448 52.6521 27.1854V27.2417V27.2396C52.6479 27.3 52.6479 27.3729 52.6479 27.4437C52.6479 28.5625 53.0833 29.5812 53.7917 30.3375L53.7896 30.3354C54.1925 30.7279 54.6721 31.0329 55.1983 31.2315C55.7246 31.4301 56.2862 31.518 56.8479 31.4896H56.8375C57.5396 31.4812 58.2062 31.3375 58.8146 31.0792L58.7812 31.0917C59.3958 30.8604 59.9167 30.5 60.3271 30.0417L60.3312 30.0375C60.3104 30.1562 60.2875 30.2562 60.2604 30.3521L60.2646 30.3312C60.2274 30.4588 60.205 30.5902 60.1979 30.7229V30.7271C60.1979 31.0771 60.3417 31.2542 60.6271 31.2542H62.9C62.9888 31.2621 63.0782 31.2522 63.1631 31.225C63.2479 31.1978 63.3265 31.1539 63.3941 31.0958C63.4616 31.0378 63.5169 30.9667 63.5566 30.8869C63.5962 30.8071 63.6195 30.7202 63.625 30.6312V30.6292L64.975 22.0312C64.9877 21.9664 64.9855 21.8995 64.9686 21.8356C64.9516 21.7717 64.9203 21.7125 64.8771 21.6625C64.8396 21.6109 64.7904 21.5689 64.7336 21.5399C64.6767 21.5109 64.6138 21.4958 64.55 21.4958H62.0437C61.7375 21.4958 61.5437 21.8604 61.4812 22.5833C61.1145 22.1128 60.6323 21.7452 60.0814 21.5163C59.5305 21.2874 58.9297 21.205 58.3375 21.2771L58.3542 21.275V21.2792ZM20.9312 21.2792H20.8729C19.2958 21.2792 17.8771 21.9646 16.9021 23.0521L16.8979 23.0562C15.827 24.1638 15.2292 25.6448 15.2312 27.1854V27.2417V27.2396C15.2037 27.8059 15.2905 28.3719 15.4867 28.9038C15.6829 29.4357 15.9843 29.9226 16.3729 30.3354L16.3708 30.3333C17.1083 31.05 18.1167 31.4917 19.2292 31.4917L19.4292 31.4875H19.4187C20.1104 31.4771 20.7667 31.3333 21.3646 31.0771L21.3312 31.0896C21.9542 30.8521 22.4833 30.4937 22.9104 30.0375L22.9125 30.0354C22.8354 30.2396 22.7875 30.4771 22.7813 30.7229V30.7271C22.7813 31.0771 22.9271 31.2542 23.2104 31.2542H25.4812C25.57 31.2621 25.6595 31.2522 25.7443 31.225C25.8292 31.1978 25.9077 31.1539 25.9753 31.0958C26.0429 31.0378 26.0982 30.9667 26.1378 30.8869C26.1775 30.8071 26.2008 30.7202 26.2062 30.6312V30.6292L27.5583 22.0312C27.5697 21.9669 27.5666 21.9008 27.5493 21.8377C27.532 21.7747 27.5009 21.7162 27.4583 21.6667C27.4208 21.615 27.3717 21.573 27.3148 21.5441C27.258 21.5151 27.1951 21.5 27.1312 21.5H24.625C24.3187 21.5 24.125 21.8646 24.0646 22.5875C23.694 22.1207 23.211 21.7558 22.6607 21.5269C22.1104 21.2981 21.511 21.2128 20.9187 21.2792L20.9354 21.2771L20.9312 21.2792ZM67.9417 16.6667L67.9083 16.6646C67.8089 16.6642 67.7129 16.7013 67.6396 16.7685C67.5662 16.8357 67.5209 16.928 67.5125 17.0271L65.3708 30.7333C65.3533 30.7993 65.353 30.8687 65.3702 30.9348C65.3873 31.0008 65.4213 31.0613 65.4687 31.1104C65.5081 31.1571 65.5573 31.1945 65.6127 31.2201C65.6682 31.2456 65.7285 31.2587 65.7896 31.2583H67.9771L68.0437 31.2625C68.2095 31.2625 68.3685 31.1967 68.4857 31.0794C68.6029 30.9622 68.6687 30.8033 68.6687 30.6375V30.6333L70.8062 17.1646L70.8083 17.1187C70.8082 17 70.7694 16.8844 70.6979 16.7896V16.7917C70.6605 16.7518 70.6153 16.7199 70.5652 16.698C70.515 16.6762 70.4609 16.6648 70.4062 16.6646L70.375 16.6667H67.9417ZM43.6292 16.6667C43.5397 16.6549 43.4488 16.6622 43.3624 16.6879C43.276 16.7137 43.1959 16.7574 43.1275 16.8162C43.0591 16.875 43.0039 16.9475 42.9654 17.0291C42.9269 17.1106 42.906 17.1994 42.9042 17.2896L40.7646 30.7312C40.7536 30.7952 40.7566 30.8607 40.7735 30.9233C40.7904 30.9859 40.8208 31.0441 40.8625 31.0937C40.8993 31.1456 40.9481 31.1878 41.0046 31.2168C41.0612 31.2458 41.1239 31.2608 41.1875 31.2604H43.9062C44.0282 31.2603 44.1464 31.2179 44.2407 31.1404C44.3349 31.0629 44.3993 30.9551 44.4229 30.8354V30.8312L45.0167 27.0104C45.0344 26.8431 45.1175 26.6896 45.2479 26.5833C45.3901 26.4685 45.5628 26.3943 45.7437 26.3687H45.75C45.9187 26.3375 46.1125 26.3208 46.3104 26.3187C46.4854 26.3187 46.6958 26.3292 46.9375 26.3521C47.2017 26.3825 47.4674 26.3964 47.7333 26.3937C49.2597 26.3962 50.7305 25.8209 51.85 24.7833L51.8458 24.7875C52.4041 24.1955 52.8352 23.4954 53.1125 22.7304C53.3898 21.9655 53.5075 21.1518 53.4583 20.3396V20.3562C53.5032 19.8191 53.4111 19.2794 53.1906 18.7875C52.9702 18.2957 52.6287 17.8677 52.1979 17.5437L52.1896 17.5375C51.1955 16.9089 50.0309 16.6039 48.8562 16.6646H48.8687L43.6292 16.6667ZM6.16667 16.6667C6.07952 16.6573 5.99138 16.6664 5.90797 16.6933C5.82456 16.7203 5.74774 16.7644 5.68252 16.823C5.61729 16.8815 5.5651 16.9531 5.52935 17.0332C5.4936 17.1132 5.47508 17.1999 5.475 17.2875V17.2917L3.33333 30.7333C3.32216 30.7972 3.32514 30.8628 3.34206 30.9254C3.35898 30.9881 3.38942 31.0462 3.43125 31.0958C3.46806 31.1477 3.51681 31.1899 3.57338 31.2189C3.62995 31.2479 3.69267 31.2629 3.75625 31.2625H6.26458C6.35401 31.2742 6.44491 31.267 6.53134 31.2412C6.61778 31.2155 6.69781 31.1718 6.76622 31.113C6.83463 31.0542 6.88988 30.9817 6.92837 30.9001C6.96686 30.8185 6.98771 30.7298 6.98958 30.6396L7.58333 27.0167C7.60138 26.85 7.68356 26.6968 7.8125 26.5896C7.95465 26.4747 8.12737 26.4006 8.30833 26.375H8.31458C8.49893 26.3425 8.68572 26.3258 8.87292 26.325H8.875C9.05 26.325 9.25833 26.3354 9.5 26.3583C9.76347 26.3886 10.0286 26.4025 10.2937 26.4C11.8833 26.4 13.3292 25.7896 14.4125 24.7896L14.4083 24.7937C14.9664 24.2016 15.3973 23.5015 15.6746 22.7366C15.9519 21.9716 16.0698 21.158 16.0208 20.3458V20.3625C16.0657 19.8254 15.9736 19.2856 15.7531 18.7938C15.5327 18.3019 15.1912 17.874 14.7604 17.55L14.7521 17.5437C13.7623 16.9174 12.6033 16.6118 11.4333 16.6688H11.4458L6.16667 16.6667ZM58.2167 28.8229L58.1167 28.825C57.5844 28.8255 57.0691 28.6373 56.6625 28.2937L56.6667 28.2958C56.4787 28.1226 56.3286 27.9123 56.2261 27.6781C56.1235 27.444 56.0706 27.1911 56.0708 26.9354L56.0729 26.8417V26.7854C56.0729 26.0062 56.3875 25.3 56.8979 24.7875C57.4 24.2729 58.1 23.9542 58.875 23.9542H58.9437H58.9396L59.0104 23.9521C59.5708 23.9521 60.0812 24.1583 60.4729 24.4979L60.4708 24.4958C60.6643 24.675 60.8186 24.8922 60.924 25.1338C61.0294 25.3755 61.0837 25.6364 61.0833 25.9L61.0812 26V25.9958V26.0458C61.0812 26.8146 60.7625 27.5104 60.2479 28.0042C59.988 28.2631 59.6796 28.4683 59.3404 28.6081C59.0012 28.7479 58.6377 28.8194 58.2708 28.8187H58.2187L58.2167 28.8229ZM20.7604 28.8229L20.6562 28.825C20.1104 28.825 19.6083 28.625 19.225 28.2937L19.2271 28.2958C19.0439 28.1207 18.8981 27.9101 18.7986 27.677C18.699 27.4439 18.6478 27.1931 18.6479 26.9396L18.65 26.8417V26.7854C18.65 26.0062 18.9646 25.3 19.475 24.7875C19.9771 24.2729 20.675 23.9542 21.45 23.9542H21.5229H21.5188L21.5896 23.9521C22.15 23.9521 22.6604 24.1583 23.0521 24.4979L23.05 24.4958C23.2429 24.6748 23.3967 24.8918 23.5018 25.1331C23.6068 25.3743 23.6608 25.6348 23.6604 25.8979L23.6583 26V25.9958V26.0687C23.6583 26.8375 23.3396 27.5292 22.825 28.0229C22.291 28.5368 21.5786 28.8236 20.8375 28.8229H20.7604ZM45.5667 23.4896L46.1271 19.9667C46.1315 19.9148 46.1462 19.8643 46.1702 19.8181C46.1942 19.7719 46.227 19.7309 46.2669 19.6974C46.3068 19.664 46.3528 19.6387 46.4025 19.623C46.4521 19.6074 46.5044 19.6017 46.5562 19.6062H47.1479L47.275 19.6042C47.6354 19.6042 47.9917 19.6292 48.3396 19.6771L48.3 19.6729C48.6229 19.7312 48.9042 19.8771 49.125 20.0854C49.2508 20.2044 49.3511 20.3478 49.4195 20.5068C49.4879 20.6659 49.5231 20.8373 49.5229 21.0104L49.5208 21.0896V21.0854C49.5646 21.4335 49.5217 21.7869 49.396 22.1144C49.2702 22.4419 49.0655 22.7332 48.8 22.9625L48.7979 22.9646C48.1341 23.3435 47.3729 23.5174 46.6104 23.4646H46.6229L45.5708 23.4979L45.5667 23.4896ZM8.11042 23.4896L8.67083 19.9667C8.67502 19.9147 8.68949 19.8641 8.71339 19.8177C8.7373 19.7714 8.77016 19.7303 8.81009 19.6968C8.85001 19.6632 8.8962 19.638 8.94597 19.6224C8.99573 19.6069 9.04809 19.6014 9.1 19.6062H9.72292C10.3899 19.5574 11.0576 19.6914 11.6542 19.9937L11.6333 19.9833C12.0271 20.2354 12.1604 20.7708 12.0292 21.5792C12.0191 21.8809 11.9366 22.1759 11.7887 22.4391C11.6408 22.7024 11.4317 22.9262 11.1792 23.0917L11.1729 23.0958C10.1855 23.4594 9.12818 23.5934 8.08125 23.4875L8.11042 23.4896Z" fill="#2790C3"/>
</g>
<defs>
<clipPath id="clip0_4229_196">
<rect width="75" height="50" fill="white"/>
</clipPath>
</defs>
</svg>
